<svg xmlns="http://www.w3.org/2000/svg" viewBox="0 0 32 32" width="32" height="32">
  <defs>
    <linearGradient id="calendarGradient" x1="0%" y1="0%" x2="100%" y2="100%">
      <stop offset="0%" style="stop-color:#007AFF;stop-opacity:1" />
      <stop offset="100%" style="stop-color:#5856D6;stop-opacity:1" />
    </linearGradient>
    <filter id="shadow" x="-20%" y="-20%" width="140%" height="140%">
      <feDropShadow dx="0" dy="2" stdDeviation="2" flood-color="rgba(0,0,0,0.2)"/>
    </filter>
  </defs>
  
  <!-- 日历主体 -->
  <rect x="4" y="6" width="24" height="22" rx="3" ry="3" 
        fill="url(#calendarGradient)" filter="url(#shadow)"/>
  
  <!-- 日历顶部 -->
  <rect x="4" y="6" width="24" height="6" rx="3" ry="3" 
        fill="#FFFFFF" opacity="0.9"/>
  
  <!-- 日历环扣 -->
  <rect x="9" y="2" width="2" height="8" rx="1" ry="1" fill="#8E8E93"/>
  <rect x="21" y="2" width="2" height="8" rx="1" ry="1" fill="#8E8E93"/>
  
  <!-- 日期网格 -->
  <g fill="#FFFFFF" opacity="0.8">
    <!-- 第一行 -->
    <rect x="7" y="15" width="2" height="2" rx="0.5"/>
    <rect x="11" y="15" width="2" height="2" rx="0.5"/>
    <rect x="15" y="15" width="2" height="2" rx="0.5"/>
    <rect x="19" y="15" width="2" height="2" rx="0.5"/>
    <rect x="23" y="15" width="2" height="2" rx="0.5"/>
    
    <!-- 第二行 -->
    <rect x="7" y="19" width="2" height="2" rx="0.5"/>
    <rect x="11" y="19" width="2" height="2" rx="0.5"/>
    <rect x="15" y="19" width="2" height="2" rx="0.5"/>
    <rect x="19" y="19" width="2" height="2" rx="0.5"/>
    <rect x="23" y="19" width="2" height="2" rx="0.5"/>
    
    <!-- 第三行 -->
    <rect x="7" y="23" width="2" height="2" rx="0.5"/>
    <rect x="11" y="23" width="2" height="2" rx="0.5"/>
    <!-- 高亮今日 -->
    <rect x="15" y="23" width="2" height="2" rx="0.5" fill="#FF3B30"/>
    <rect x="19" y="23" width="2" height="2" rx="0.5"/>
    <rect x="23" y="23" width="2" height="2" rx="0.5"/>
  </g>
  
  <!-- 提醒铃铛 -->
  <g transform="translate(20, 20)">
    <path d="M6 2C6 0.9 5.1 0 4 0S2 0.9 2 2V3C0.9 3 0 3.9 0 5V6C0 7.1 0.9 8 2 8H6C7.1 8 8 7.1 8 6V5C8 3.9 7.1 3 6 3V2Z" 
          fill="#FF9500" opacity="0.9"/>
    <circle cx="4" cy="9" r="0.8" fill="#FF9500" opacity="0.9"/>
  </g>
</svg>